<svg 
 xmlns="http://www.w3.org/2000/svg"
 xmlns:xlink="http://www.w3.org/1999/xlink"
 width="23px" height="23px">
<path fill-rule="evenodd"  fill="rgb(50, 50, 50)"
 d="M15.325,15.333 C11.136,15.333 7.740,11.900 7.740,7.667 C7.740,3.433 11.136,-0.000 15.325,-0.000 C19.512,-0.000 22.910,3.433 22.910,7.667 C22.910,11.900 19.512,15.333 15.325,15.333 ZM15.325,1.533 C11.979,1.533 9.257,4.284 9.257,7.667 C9.257,11.049 11.979,13.800 15.325,13.800 C18.671,13.800 21.393,11.049 21.393,7.667 C21.393,4.284 18.671,1.533 15.325,1.533 ZM9.725,15.195 L2.176,22.818 L2.164,22.807 C2.032,22.922 1.863,23.000 1.672,23.000 C1.254,23.000 0.914,22.657 0.914,22.233 C0.914,22.042 0.991,21.871 1.106,21.738 L1.105,21.733 L1.118,21.718 C1.132,21.701 1.145,21.690 1.161,21.675 L8.533,14.234 C8.904,14.584 9.301,14.909 9.725,15.195 Z"/>
</svg>